<?xml version="1.0" encoding="UTF-8" standalone="no"?><!DOCTYPE svg PUBLIC "-//W3C//DTD SVG 1.1//EN" "http://www.w3.org/Graphics/SVG/1.1/DTD/svg11.dtd"><!-- Generated by graphviz version 2.40.1 (20161225.0304)
 --><!-- Title: D Pages: 1 --><svg xmlns="http://www.w3.org/2000/svg" xmlns:xlink="http://www.w3.org/1999/xlink" width="674pt" height="44pt" viewBox="0.00 0.00 673.58 44.00">
<g id="graph0" class="graph" transform="scale(1 1) rotate(0) translate(4 40)">
<title>D</title>
<polygon fill="#ffffff" stroke="transparent" points="-4,4 -4,-40 669.5788,-40 669.5788,4 -4,4"/>
<!-- a -->
<g id="node1" class="node">
<title>a</title>
<polygon fill="none" stroke="#000000" points="210.669,-36 91.1102,-36 91.1102,0 210.669,0 210.669,-36"/>
<text text-anchor="middle" x="150.8896" y="-13.8" font-family="Times,serif" font-size="14.00" fill="#000000"> Lexical Analyzer </text>
</g>
<!-- b -->
<g id="node2" class="node">
<title>b</title>
<polygon fill="none" stroke="#000000" points="399.0809,-36 282.7013,-36 282.7013,0 399.0809,0 399.0809,-36"/>
<text text-anchor="middle" x="340.8911" y="-13.8" font-family="Times,serif" font-size="14.00" fill="#000000"> Syntax Analyzer </text>
</g>
<!-- a&#45;&gt;b -->
<g id="edge2" class="edge">
<title>a-&gt;b</title>
<path fill="none" stroke="#000000" d="M210.7465,-18C230.3809,-18 252.3468,-18 272.5599,-18"/>
<polygon fill="#000000" stroke="#000000" points="272.6352,-21.5001 282.6351,-18 272.6351,-14.5001 272.6352,-21.5001"/>
<text text-anchor="middle" x="246.6628" y="-22.2" font-family="Times,serif" font-size="14.00" fill="#000000">Token</text>
</g>
<!-- c -->
<g id="node3" class="node">
<title>c</title>
<polygon fill="none" stroke="#000000" points="573.6977,-36 461.6709,-36 461.6709,0 573.6977,0 573.6977,-36"/>
<text text-anchor="middle" x="517.6843" y="-13.8" font-family="Times,serif" font-size="14.00" fill="#000000"> Code Generator </text>
</g>
<!-- b&#45;&gt;c -->
<g id="edge3" class="edge">
<title>b-&gt;c</title>
<path fill="none" stroke="#000000" d="M399.2698,-18C415.8447,-18 434.0174,-18 451.0422,-18"/>
<polygon fill="#000000" stroke="#000000" points="451.4697,-21.5001 461.4697,-18 451.4696,-14.5001 451.4697,-21.5001"/>
<text text-anchor="middle" x="430.4567" y="-22.2" font-family="Times,serif" font-size="14.00" fill="#000000">AST</text>
</g>
<!-- Output -->
<g id="node5" class="node">
<title>Output</title>
<text text-anchor="middle" x="638.1349" y="-13.8" font-family="Times,serif" font-size="14.00" fill="#000000">Output</text>
</g>
<!-- c&#45;&gt;Output -->
<g id="edge4" class="edge">
<title>c-&gt;Output</title>
<path fill="none" stroke="#000000" d="M574.0303,-18C582.9848,-18 592.0542,-18 600.4422,-18"/>
<polygon fill="#000000" stroke="#000000" points="600.6427,-21.5001 610.6426,-18 600.6426,-14.5001 600.6427,-21.5001"/>
</g>
<!-- Input -->
<g id="node4" class="node">
<title>Input</title>
<text text-anchor="middle" x="27" y="-13.8" font-family="Times,serif" font-size="14.00" fill="#000000">Input</text>
</g>
<!-- Input&#45;&gt;a -->
<g id="edge1" class="edge">
<title>Input-&gt;a</title>
<path fill="none" stroke="#000000" d="M54.1881,-18C62.1913,-18 71.3389,-18 80.7432,-18"/>
<polygon fill="#000000" stroke="#000000" points="81.0067,-21.5001 91.0067,-18 81.0066,-14.5001 81.0067,-21.5001"/>
</g>
</g>
</svg>