<?xml version="1.0" encoding="UTF-8" standalone="no"?><!DOCTYPE svg PUBLIC "-//W3C//DTD SVG 1.1//EN" "http://www.w3.org/Graphics/SVG/1.1/DTD/svg11.dtd"><!-- Generated by graphviz version 2.40.1 (20161225.0304)
 --><!-- Title: D Pages: 1 --><svg xmlns="http://www.w3.org/2000/svg" xmlns:xlink="http://www.w3.org/1999/xlink" width="125pt" height="260pt" viewBox="0.00 0.00 125.00 260.00">
<g id="graph0" class="graph" transform="scale(1 1) rotate(0) translate(4 256)">
<title>D</title>
<polygon fill="#ffffff" stroke="transparent" points="-4,4 -4,-256 121,-256 121,4 -4,4"/>
<!-- x -->
<g id="node1" class="node">
<title>x</title>
<ellipse fill="none" stroke="#000000" cx="18" cy="-162" rx="18" ry="18"/>
<text text-anchor="middle" x="18" y="-157.8" font-family="Times,serif" font-size="14.00" fill="#000000">x</text>
</g>
<!-- eq -->
<g id="node2" class="node">
<title>eq</title>
<ellipse fill="none" stroke="#000000" cx="45" cy="-234" rx="18" ry="18"/>
<text text-anchor="middle" x="45" y="-229.8" font-family="Times,serif" font-size="14.00" fill="#000000">=</text>
</g>
<!-- eq&#45;&gt;x -->
<g id="edge1" class="edge">
<title>eq-&gt;x</title>
<path fill="none" stroke="#000000" d="M38.6014,-216.937C35.407,-208.4186 31.471,-197.9227 27.8982,-188.3952"/>
<polygon fill="#000000" stroke="#000000" points="31.1411,-187.0749 24.3527,-178.9405 24.5868,-189.5328 31.1411,-187.0749"/>
</g>
<!-- _add -->
<g id="node4" class="node">
<title>_add</title>
<ellipse fill="none" stroke="#000000" cx="72" cy="-162" rx="18" ry="18"/>
<text text-anchor="middle" x="72" y="-157.8" font-family="Times,serif" font-size="14.00" fill="#000000">+</text>
</g>
<!-- eq&#45;&gt;_add -->
<g id="edge2" class="edge">
<title>eq-&gt;_add</title>
<path fill="none" stroke="#000000" d="M51.3986,-216.937C54.593,-208.4186 58.529,-197.9227 62.1018,-188.3952"/>
<polygon fill="#000000" stroke="#000000" points="65.4132,-189.5328 65.6473,-178.9405 58.8589,-187.0749 65.4132,-189.5328"/>
</g>
<!-- mul -->
<g id="node3" class="node">
<title>mul</title>
<ellipse fill="none" stroke="#000000" cx="45" cy="-90" rx="18" ry="18"/>
<text text-anchor="middle" x="45" y="-85.8" font-family="Times,serif" font-size="14.00" fill="#000000">*</text>
</g>
<!-- dec2 -->
<g id="node6" class="node">
<title>dec2</title>
<ellipse fill="none" stroke="#000000" cx="18" cy="-18" rx="18" ry="18"/>
<text text-anchor="middle" x="18" y="-13.8" font-family="Times,serif" font-size="14.00" fill="#000000">2</text>
</g>
<!-- mul&#45;&gt;dec2 -->
<g id="edge5" class="edge">
<title>mul-&gt;dec2</title>
<path fill="none" stroke="#000000" d="M38.6014,-72.937C35.407,-64.4186 31.471,-53.9227 27.8982,-44.3952"/>
<polygon fill="#000000" stroke="#000000" points="31.1411,-43.0749 24.3527,-34.9405 24.5868,-45.5328 31.1411,-43.0749"/>
</g>
<!-- dec3 -->
<g id="node7" class="node">
<title>dec3</title>
<ellipse fill="none" stroke="#000000" cx="72" cy="-18" rx="18" ry="18"/>
<text text-anchor="middle" x="72" y="-13.8" font-family="Times,serif" font-size="14.00" fill="#000000">3</text>
</g>
<!-- mul&#45;&gt;dec3 -->
<g id="edge6" class="edge">
<title>mul-&gt;dec3</title>
<path fill="none" stroke="#000000" d="M51.3986,-72.937C54.593,-64.4186 58.529,-53.9227 62.1018,-44.3952"/>
<polygon fill="#000000" stroke="#000000" points="65.4132,-45.5328 65.6473,-34.9405 58.8589,-43.0749 65.4132,-45.5328"/>
</g>
<!-- _add&#45;&gt;mul -->
<g id="edge3" class="edge">
<title>_add-&gt;mul</title>
<path fill="none" stroke="#000000" d="M65.6014,-144.937C62.407,-136.4186 58.471,-125.9227 54.8982,-116.3952"/>
<polygon fill="#000000" stroke="#000000" points="58.1411,-115.0749 51.3527,-106.9405 51.5868,-117.5328 58.1411,-115.0749"/>
</g>
<!-- dec1 -->
<g id="node5" class="node">
<title>dec1</title>
<ellipse fill="none" stroke="#000000" cx="99" cy="-90" rx="18" ry="18"/>
<text text-anchor="middle" x="99" y="-85.8" font-family="Times,serif" font-size="14.00" fill="#000000">1</text>
</g>
<!-- _add&#45;&gt;dec1 -->
<g id="edge4" class="edge">
<title>_add-&gt;dec1</title>
<path fill="none" stroke="#000000" d="M78.3986,-144.937C81.593,-136.4186 85.529,-125.9227 89.1018,-116.3952"/>
<polygon fill="#000000" stroke="#000000" points="92.4132,-117.5328 92.6473,-106.9405 85.8589,-115.0749 92.4132,-117.5328"/>
</g>
</g>
</svg>