<?xml version="1.0" encoding="UTF-8" standalone="no"?><!DOCTYPE svg PUBLIC "-//W3C//DTD SVG 1.1//EN" "http://www.w3.org/Graphics/SVG/1.1/DTD/svg11.dtd"><!-- Generated by graphviz version 2.40.1 (20161225.0304)
 --><!-- Title: finite_state_machine Pages: 1 --><svg xmlns="http://www.w3.org/2000/svg" xmlns:xlink="http://www.w3.org/1999/xlink" width="530pt" height="190pt" viewBox="0.00 0.00 530.15 190.11">
<g id="graph0" class="graph" transform="scale(1 1) rotate(0) translate(4 186.1066)">
<title>finite_state_machine</title>
<polygon fill="#ffffff" stroke="transparent" points="-4,4 -4,-186.1066 526.1535,-186.1066 526.1535,4 -4,4"/>
<!-- start -->
<g id="node1" class="node">
<title>start</title>
<ellipse fill="none" stroke="#000000" cx="31.6609" cy="-97.2279" rx="27.8023" ry="27.8023"/>
<ellipse fill="none" stroke="#000000" cx="31.6609" cy="-97.2279" rx="31.8227" ry="31.8227"/>
<text text-anchor="middle" x="31.6609" y="-93.0279" font-family="Times,serif" font-size="14.00" fill="#000000">start</text>
</g>
<!-- start&#45;&gt;start -->
<g id="edge1" class="edge">
<title>start-&gt;start</title>
<path fill="none" stroke="#000000" d="M16.0994,-124.8051C14.8253,-136.7025 20.0125,-146.8889 31.6609,-146.8889 39.6692,-146.8889 44.6236,-142.0742 46.524,-135.199"/>
<polygon fill="#000000" stroke="#000000" points="50.044,-135.0173 47.2225,-124.8051 43.0598,-134.5479 50.044,-135.0173"/>
<text text-anchor="middle" x="31.6609" y="-151.0889" font-family="Times,serif" font-size="14.00" fill="#000000">空白</text>
</g>
<!-- Id -->
<g id="node4" class="node">
<title>Id</title>
<ellipse fill="none" stroke="#000000" cx="187.5365" cy="-97.2279" rx="19.1599" ry="19.1599"/>
<text text-anchor="middle" x="187.5365" y="-93.0279" font-family="Times,serif" font-size="14.00" fill="#000000">Id</text>
</g>
<!-- start&#45;&gt;Id -->
<g id="edge2" class="edge">
<title>start-&gt;Id</title>
<path fill="none" stroke="#000000" d="M63.5808,-97.2279C91.2932,-97.2279 131.0989,-97.2279 158.0666,-97.2279"/>
<polygon fill="#000000" stroke="#000000" points="158.417,-100.728 168.417,-97.2279 158.4169,-93.728 158.417,-100.728"/>
<text text-anchor="middle" x="115.8893" y="-101.4279" font-family="Times,serif" font-size="14.00" fill="#000000">A-Z、a-z、_</text>
</g>
<!-- END -->
<g id="node2" class="node">
<title>END</title>
<ellipse fill="none" stroke="#000000" cx="474.9256" cy="-147.2279" rx="30.7716" ry="30.7716"/>
<ellipse fill="none" stroke="#000000" cx="474.9256" cy="-147.2279" rx="34.7577" ry="34.7577"/>
<text text-anchor="middle" x="474.9256" y="-143.0279" font-family="Times,serif" font-size="14.00" fill="#000000">END</text>
</g>
<!-- ERROR -->
<g id="node3" class="node">
<title>ERROR</title>
<ellipse fill="none" stroke="#000000" cx="474.9256" cy="-47.2279" rx="43.4376" ry="43.4376"/>
<ellipse fill="none" stroke="#000000" cx="474.9256" cy="-47.2279" rx="47.457" ry="47.457"/>
<text text-anchor="middle" x="474.9256" y="-43.0279" font-family="Times,serif" font-size="14.00" fill="#000000">ERROR</text>
</g>
<!-- Id&#45;&gt;start -->
<g id="edge6" class="edge">
<title>Id-&gt;start</title>
<path fill="none" stroke="#000000" d="M171.6982,-85.9899C165.3958,-82.1655 157.8836,-78.3688 150.4567,-76.4279 120.7284,-68.6593 111.4462,-70.3741 81.3219,-76.4279 77.4629,-77.2034 73.5298,-78.2866 69.6513,-79.5552"/>
<polygon fill="#000000" stroke="#000000" points="68.3808,-76.2931 60.1964,-83.0211 70.7901,-82.8655 68.3808,-76.2931"/>
<text text-anchor="middle" x="115.8893" y="-81.4279" font-family="Times,serif" font-size="14.00" fill="#000000">空白</text>
</g>
<!-- Id&#45;&gt;END -->
<g id="edge5" class="edge">
<title>Id-&gt;END</title>
<path fill="none" stroke="#000000" d="M205.3872,-104.8686C211.4053,-107.2009 218.219,-109.5813 224.6162,-111.2279 295.0736,-129.3635 379.1987,-139.1049 429.774,-143.7203"/>
<polygon fill="#000000" stroke="#000000" points="429.7704,-147.2335 440.04,-144.6285 430.3873,-140.2608 429.7704,-147.2335"/>
<text text-anchor="middle" x="317.1569" y="-145.4279" font-family="Times,serif" font-size="14.00" fill="#000000">EOF</text>
</g>
<!-- Id&#45;&gt;ERROR -->
<g id="edge4" class="edge">
<title>Id-&gt;ERROR</title>
<path fill="none" stroke="#000000" d="M206.3929,-93.9473C248.7096,-86.585 352.6433,-68.5026 418.0935,-57.1156"/>
<polygon fill="#000000" stroke="#000000" points="419.0001,-60.5105 428.2521,-55.3482 417.8002,-53.6141 419.0001,-60.5105"/>
<text text-anchor="middle" x="317.1569" y="-94.4279" font-family="Times,serif" font-size="14.00" fill="#000000">  ^[A-Z、a-z、0-9、EOF、空白]</text>
</g>
<!-- Id&#45;&gt;Id -->
<g id="edge3" class="edge">
<title>Id-&gt;Id</title>
<path fill="none" stroke="#000000" d="M175.8246,-112.4633C172.0114,-123.4068 175.9154,-134.3077 187.5365,-134.3077 195.526,-134.3077 199.8679,-129.1553 200.5623,-122.379"/>
<polygon fill="#000000" stroke="#000000" points="204.0317,-121.9168 199.2483,-112.4633 197.0924,-122.8364 204.0317,-121.9168"/>
<text text-anchor="middle" x="187.5365" y="-138.5077" font-family="Times,serif" font-size="14.00" fill="#000000">A-Z、a-z、0-9、_        </text>
</g>
</g>
</svg>