<?xml version="1.0" encoding="UTF-8" standalone="no"?><!DOCTYPE svg PUBLIC "-//W3C//DTD SVG 1.1//EN" "http://www.w3.org/Graphics/SVG/1.1/DTD/svg11.dtd"><!-- Generated by graphviz version 2.40.1 (20161225.0304)
 --><!-- Title: st2 Pages: 1 --><svg xmlns="http://www.w3.org/2000/svg" xmlns:xlink="http://www.w3.org/1999/xlink" width="163pt" height="301pt" viewBox="0.00 0.00 163.16 301.00">
<g id="graph0" class="graph" transform="scale(1 1) rotate(0) translate(4 297)">
<title>st2</title>
<polygon fill="#ffffff" stroke="transparent" points="-4,4 -4,-297 159.1599,-297 159.1599,4 -4,4"/>
<!-- _BP -->
<g id="node1" class="node">
<title>_BP</title>
<polygon fill="none" stroke="#87ceeb" points="68.58,-293 14.58,-293 14.58,-257 68.58,-257 68.58,-293"/>
<text text-anchor="middle" x="41.58" y="-272" font-family="Verdana" font-size="10.00" fill="#000000">BP</text>
</g>
<!-- memory -->
<g id="node3" class="node">
<title>memory</title>
<polygon fill="none" stroke="#87ceeb" points="45.2885,-.5 45.2885,-220.5 109.8715,-220.5 109.8715,-.5 45.2885,-.5"/>
<text text-anchor="middle" x="77.58" y="-207.5" font-family="Verdana" font-size="10.00" fill="#000000"> </text>
<polyline fill="none" stroke="#87ceeb" points="45.2885,-200.5 109.8715,-200.5 "/>
<text text-anchor="middle" x="77.58" y="-187.5" font-family="Verdana" font-size="10.00" fill="#000000"> </text>
<polyline fill="none" stroke="#87ceeb" points="45.2885,-180.5 109.8715,-180.5 "/>
<text text-anchor="middle" x="77.58" y="-167.5" font-family="Verdana" font-size="10.00" fill="#000000">...</text>
<polyline fill="none" stroke="#87ceeb" points="45.2885,-160.5 109.8715,-160.5 "/>
<text text-anchor="middle" x="77.58" y="-147.5" font-family="Verdana" font-size="10.00" fill="#000000">parm 3</text>
<polyline fill="none" stroke="#87ceeb" points="45.2885,-140.5 109.8715,-140.5 "/>
<text text-anchor="middle" x="77.58" y="-127.5" font-family="Verdana" font-size="10.00" fill="#000000">parm 2</text>
<polyline fill="none" stroke="#87ceeb" points="45.2885,-120.5 109.8715,-120.5 "/>
<text text-anchor="middle" x="77.58" y="-107.5" font-family="Verdana" font-size="10.00" fill="#000000">parm 1</text>
<polyline fill="none" stroke="#87ceeb" points="45.2885,-100.5 109.8715,-100.5 "/>
<text text-anchor="middle" x="77.58" y="-87.5" font-family="Verdana" font-size="10.00" fill="#000000">return adder</text>
<polyline fill="none" stroke="#87ceeb" points="45.2885,-80.5 109.8715,-80.5 "/>
<text text-anchor="middle" x="77.58" y="-67.5" font-family="Verdana" font-size="10.00" fill="#000000">old BP</text>
<polyline fill="none" stroke="#87ceeb" points="45.2885,-60.5 109.8715,-60.5 "/>
<text text-anchor="middle" x="77.58" y="-47.5" font-family="Verdana" font-size="10.00" fill="#000000">...</text>
<polyline fill="none" stroke="#87ceeb" points="45.2885,-40.5 109.8715,-40.5 "/>
<text text-anchor="middle" x="77.58" y="-27.5" font-family="Verdana" font-size="10.00" fill="#000000"> </text>
<polyline fill="none" stroke="#87ceeb" points="45.2885,-20.5 109.8715,-20.5 "/>
<text text-anchor="middle" x="77.58" y="-7.5" font-family="Verdana" font-size="10.00" fill="#000000"> </text>
</g>
<!-- _BP&#45;&gt;memory -->
<g id="edge1" class="edge">
<title>_BP-&gt;memory:n</title>
<path fill="none" stroke="#000000" d="M34.2828,-256.6282C14.8595,-205.4196 -32.1852,-64.0026 35.2848,-51.4005"/>
<polygon fill="#000000" stroke="#000000" points="35.923,-54.8581 45.58,-50.5 35.313,-47.8848 35.923,-54.8581"/>
</g>
<!-- _SP -->
<g id="node2" class="node">
<title>_SP</title>
<polygon fill="none" stroke="#87ceeb" points="140.58,-293 86.58,-293 86.58,-257 140.58,-257 140.58,-293"/>
<text text-anchor="middle" x="113.58" y="-272" font-family="Verdana" font-size="10.00" fill="#000000">SP</text>
</g>
<!-- _SP&#45;&gt;memory -->
<g id="edge2" class="edge">
<title>_SP-&gt;memory:n</title>
<path fill="none" stroke="#000000" d="M120.8771,-256.6282C140.3004,-205.4196 187.3451,-64.0026 119.8751,-51.4005"/>
<polygon fill="#000000" stroke="#000000" points="119.8469,-47.8848 109.58,-50.5 119.2369,-54.8581 119.8469,-47.8848"/>
</g>
</g>
</svg>